HIERARCHY
ROOT Hips
{
	OFFSET 0.000000 71.427986 0.000000
	CHANNELS 6 Xposition Yposition Zposition Xrotation Yrotation Zrotation
	JOINT Pelvis
	{
		OFFSET 0.000000 0.000000 0.000000
		CHANNELS 3 Xrotation Yrotation Zrotation
		JOINT LeftUpLeg
		{
			OFFSET 6.797100 -2.508499 -1.318700
			CHANNELS 3 Xrotation Yrotation Zrotation
			JOINT LeftLeg
			{
				OFFSET 0.069008 -29.241863 0.690200
				CHANNELS 3 Xrotation Yrotation Zrotation
				JOINT LeftFoot
				{
					OFFSET -0.069008 -29.568123 -0.266800
					CHANNELS 3 Xrotation Yrotation Zrotation
					JOINT LeftToeBase
					{
						OFFSET 3.145500 -8.631000 16.059900
						CHANNELS 3 Xrotation Yrotation Zrotation
						End Site
						{
							OFFSET 0.000000 18.501587 0.000000
						}
					}
				}
			}
			JOINT Left_ShortSleeve
			{
				OFFSET 0.265923 -10.480953 1.153800
				CHANNELS 3 Xrotation Yrotation Zrotation
				End Site
				{
					OFFSET 1.725763 19.823879 0.000000
				}
			}
		}
		JOINT RightUpLeg
		{
			OFFSET -6.797100 -2.508499 -1.318700
			CHANNELS 3 Xrotation Yrotation Zrotation
			JOINT RightLeg
			{
				OFFSET -0.082453 -29.241932 0.688000
				CHANNELS 3 Xrotation Yrotation Zrotation
				JOINT RightFoot
				{
					OFFSET 0.082453 -29.568058 -0.264600
					CHANNELS 3 Xrotation Yrotation Zrotation
					JOINT RightToeBase
					{
						OFFSET -3.115300 -8.682800 16.113400
						CHANNELS 3 Xrotation Yrotation Zrotation
						End Site
						{
							OFFSET 0.000000 18.567114 0.000000
						}
					}
				}
			}
			JOINT Right_ShortSleeve
			{
				OFFSET -0.265923 -10.480953 1.153800
				CHANNELS 3 Xrotation Yrotation Zrotation
				End Site
				{
					OFFSET -1.725766 19.823910 0.000000
				}
			}
		}
	}
	JOINT Spine
	{
		OFFSET 0.000000 13.368103 0.470500
		CHANNELS 3 Xrotation Yrotation Zrotation
		JOINT Spine1
		{
			OFFSET 0.147000 13.837402 0.538800
			CHANNELS 3 Xrotation Yrotation Zrotation
			JOINT Spine2
			{
				OFFSET 0.168000 16.242897 -1.435500
				CHANNELS 3 Xrotation Yrotation Zrotation
				JOINT Neck
				{
					OFFSET 0.217200 18.631500 -1.679100
					CHANNELS 3 Xrotation Yrotation Zrotation
					JOINT Head
					{
						OFFSET 0.000000 6.599396 1.385900
						CHANNELS 3 Xrotation Yrotation Zrotation
						JOINT Hat
						{
							OFFSET -0.532200 27.220596 -10.096100
							CHANNELS 3 Xrotation Yrotation Zrotation
							End Site
							{
								OFFSET 0.000000 22.029861 0.000000
							}
						}
						JOINT HairD
						{
							OFFSET -10.777400 17.437393 -1.325900
							CHANNELS 3 Xrotation Yrotation Zrotation
							JOINT HairD1
							{
								OFFSET -3.290299 -11.051193 1.062200
								CHANNELS 3 Xrotation Yrotation Zrotation
								End Site
								{
									OFFSET 0.000000 11.579437 0.000000
								}
							}
						}
						JOINT HairB
						{
							OFFSET -10.777400 17.437393 1.467900
							CHANNELS 3 Xrotation Yrotation Zrotation
							JOINT HairB1
							{
								OFFSET -1.561200 -12.956299 3.590200
								CHANNELS 3 Xrotation Yrotation Zrotation
								End Site
								{
									OFFSET 0.000000 13.534866 0.000000
								}
							}
						}
						JOINT HairA
						{
							OFFSET 9.713100 17.437393 1.467900
							CHANNELS 3 Xrotation Yrotation Zrotation
							JOINT HairA1
							{
								OFFSET 1.561200 -12.956299 3.590200
								CHANNELS 3 Xrotation Yrotation Zrotation
								End Site
								{
									OFFSET 0.000000 13.534866 0.000000
								}
							}
						}
						JOINT HairC
						{
							OFFSET 9.713100 17.437393 -1.325900
							CHANNELS 3 Xrotation Yrotation Zrotation
							JOINT HairC1
							{
								OFFSET 3.290300 -11.051193 1.062200
								CHANNELS 3 Xrotation Yrotation Zrotation
								End Site
								{
									OFFSET 0.000000 11.579437 0.000000
								}
							}
						}
					}
				}
				JOINT LeftShoulder
				{
					OFFSET 5.101800 15.108002 -2.763700
					CHANNELS 3 Xrotation Yrotation Zrotation
					JOINT LeftArm
					{
						OFFSET 9.825497 2.506317 -1.597400
						CHANNELS 3 Xrotation Yrotation Zrotation
						JOINT LeftForeArm
						{
							OFFSET 21.966244 0.000000 0.000000
							CHANNELS 3 Xrotation Yrotation Zrotation
							JOINT LeftHand
							{
								OFFSET 33.879036 0.000000 0.000000
								CHANNELS 3 Xrotation Yrotation Zrotation
								JOINT LeftHandThumb1
								{
									OFFSET 6.715286 -2.359680 3.363841
									CHANNELS 3 Xrotation Yrotation Zrotation
									JOINT LeftHandThumb2
									{
										OFFSET 2.507072 -1.447464 1.447461
										CHANNELS 3 Xrotation Yrotation Zrotation
										JOINT LeftHandThumb3
										{
											OFFSET 2.898338 -1.673355 1.673357
											CHANNELS 3 Xrotation Yrotation Zrotation
											End Site
											{
												OFFSET -0.295959 3.727692 -0.131651
											}
										}
									}
								}
								JOINT LeftHandIndex1
								{
									OFFSET 14.190811 -0.254547 3.840278
									CHANNELS 3 Xrotation Yrotation Zrotation
									JOINT LeftHandIndex2
									{
										OFFSET 3.551727 0.000000 -0.000000
										CHANNELS 3 Xrotation Yrotation Zrotation
										JOINT LeftHandIndex3
										{
											OFFSET 2.894196 0.000000 0.000000
											CHANNELS 3 Xrotation Yrotation Zrotation
											End Site
											{
												OFFSET -1.000603 2.690872 0.366626
											}
										}
									}
								}
								JOINT LeftHandMiddle1
								{
									OFFSET 13.776489 0.000000 0.000000
									CHANNELS 3 Xrotation Yrotation Zrotation
									JOINT LeftHandMiddle2
									{
										OFFSET 3.438232 0.000000 0.000000
										CHANNELS 3 Xrotation Yrotation Zrotation
										JOINT LeftHandMiddle3
										{
											OFFSET 3.691551 0.000000 0.000000
											CHANNELS 3 Xrotation Yrotation Zrotation
											End Site
											{
												OFFSET -1.082298 3.499527 0.457670
											}
										}
									}
								}
								JOINT LeftHandRing1
								{
									OFFSET 13.966164 -0.268127 -3.067488
									CHANNELS 3 Xrotation Yrotation Zrotation
									JOINT LeftHandRing2
									{
										OFFSET 3.162567 0.000000 0.000000
										CHANNELS 3 Xrotation Yrotation Zrotation
										JOINT LeftHandRing3
										{
											OFFSET 3.324348 0.000000 0.000000
											CHANNELS 3 Xrotation Yrotation Zrotation
											End Site
											{
												OFFSET -0.861900 3.184998 0.405154
											}
										}
									}
								}
								JOINT LeftHandPinky1
								{
									OFFSET 13.131393 -0.168503 -5.746925
									CHANNELS 3 Xrotation Yrotation Zrotation
									JOINT LeftHandPinky2
									{
										OFFSET 2.849182 0.000000 0.000000
										CHANNELS 3 Xrotation Yrotation Zrotation
										JOINT LeftHandPinky3
										{
											OFFSET 2.805038 0.000000 0.000000
											CHANNELS 3 Xrotation Yrotation Zrotation
											End Site
											{
												OFFSET -0.882500 2.642609 0.325652
											}
										}
									}
								}
							}
							JOINT Left_Sleeve
							{
								OFFSET 6.592125 -0.646545 0.805568
								CHANNELS 3 Xrotation Yrotation Zrotation
								End Site
								{
									OFFSET -0.000179 20.275787 -0.000000
								}
							}
						}
					}
				}
				JOINT RightShoulder
				{
					OFFSET -5.731700 15.108002 -2.763700
					CHANNELS 3 Xrotation Yrotation Zrotation
					JOINT RightArm
					{
						OFFSET -9.825497 2.506317 -1.597400
						CHANNELS 3 Xrotation Yrotation Zrotation
						JOINT RightForeArm
						{
							OFFSET -21.966242 0.000000 0.000000
							CHANNELS 3 Xrotation Yrotation Zrotation
							JOINT RightHand
							{
								OFFSET -33.879032 0.000000 0.000000
								CHANNELS 3 Xrotation Yrotation Zrotation
								JOINT RightHandThumb1
								{
									OFFSET -6.715286 -2.359680 3.363841
									CHANNELS 3 Xrotation Yrotation Zrotation
									JOINT RightHandThumb2
									{
										OFFSET -2.507072 -1.447464 1.447461
										CHANNELS 3 Xrotation Yrotation Zrotation
										JOINT RightHandThumb3
										{
											OFFSET -2.898338 -1.673355 1.673357
											CHANNELS 3 Xrotation Yrotation Zrotation
											End Site
											{
												OFFSET 0.295959 3.727692 -0.131651
											}
										}
									}
								}
								JOINT RightHandIndex1
								{
									OFFSET -14.190811 -0.254547 3.840278
									CHANNELS 3 Xrotation Yrotation Zrotation
									JOINT RightHandIndex2
									{
										OFFSET -3.551727 0.000000 -0.000000
										CHANNELS 3 Xrotation Yrotation Zrotation
										JOINT RightHandIndex3
										{
											OFFSET -2.894196 0.000000 0.000000
											CHANNELS 3 Xrotation Yrotation Zrotation
											End Site
											{
												OFFSET 1.000603 2.690872 0.366626
											}
										}
									}
								}
								JOINT RightHandMiddle1
								{
									OFFSET -13.776489 0.000000 0.000000
									CHANNELS 3 Xrotation Yrotation Zrotation
									JOINT RightHandMiddle2
									{
										OFFSET -3.438232 0.000000 0.000000
										CHANNELS 3 Xrotation Yrotation Zrotation
										JOINT RightHandMiddle3
										{
											OFFSET -3.691551 0.000000 0.000000
											CHANNELS 3 Xrotation Yrotation Zrotation
											End Site
											{
												OFFSET 1.082298 3.499527 0.457670
											}
										}
									}
								}
								JOINT RightHandRing1
								{
									OFFSET -13.966164 -0.268127 -3.067488
									CHANNELS 3 Xrotation Yrotation Zrotation
									JOINT RightHandRing2
									{
										OFFSET -3.162567 0.000000 0.000000
										CHANNELS 3 Xrotation Yrotation Zrotation
										JOINT RightHandRing3
										{
											OFFSET -3.324348 0.000000 0.000000
											CHANNELS 3 Xrotation Yrotation Zrotation
											End Site
											{
												OFFSET 0.861900 3.184998 0.405154
											}
										}
									}
								}
								JOINT RightHandPinky1
								{
									OFFSET -13.131393 -0.168503 -5.746925
									CHANNELS 3 Xrotation Yrotation Zrotation
									JOINT RightHandPinky2
									{
										OFFSET -2.849182 0.000000 0.000000
										CHANNELS 3 Xrotation Yrotation Zrotation
										JOINT RightHandPinky3
										{
											OFFSET -2.805038 0.000000 0.000000
											CHANNELS 3 Xrotation Yrotation Zrotation
											End Site
											{
												OFFSET 0.882500 2.642609 0.325652
											}
										}
									}
								}
							}
							JOINT Right_Sleeve
							{
								OFFSET -6.592125 -0.646545 0.805568
								CHANNELS 3 Xrotation Yrotation Zrotation
								End Site
								{
									OFFSET 0.000179 20.275787 -0.000000
								}
							}
						}
					}
				}
				JOINT Bind_Right_JacketString
				{
					OFFSET -3.534800 11.969597 7.200700
					CHANNELS 3 Xrotation Yrotation Zrotation
					JOINT Bind_Right_JacketString1
					{
						OFFSET -0.319900 -6.102600 2.794100
						CHANNELS 3 Xrotation Yrotation Zrotation
						End Site
						{
							OFFSET 0.000000 6.719452 0.000000
						}
					}
				}
				JOINT Bind_Left_JacketString
				{
					OFFSET 2.904800 11.969597 7.200700
					CHANNELS 3 Xrotation Yrotation Zrotation
					JOINT Bind_Left_JacketString1
					{
						OFFSET 0.364800 -5.904503 3.186800
						CHANNELS 3 Xrotation Yrotation Zrotation
						End Site
						{
							OFFSET 0.000000 6.719513 0.000000
						}
					}
				}
				JOINT HairE
				{
					OFFSET 5.915200 17.612701 -11.592200
					CHANNELS 3 Xrotation Yrotation Zrotation
					JOINT HairE1
					{
						OFFSET 0.289200 -7.171898 -1.284500
						CHANNELS 3 Xrotation Yrotation Zrotation
						End Site
						{
							OFFSET 0.000000 7.291756 0.000000
						}
					}
				}
				JOINT HairF
				{
					OFFSET -0.864800 17.612701 -11.592200
					CHANNELS 3 Xrotation Yrotation Zrotation
					JOINT HairF1
					{
						OFFSET 0.000000 -14.087097 -2.127501
						CHANNELS 3 Xrotation Yrotation Zrotation
						End Site
						{
							OFFSET 0.000000 14.246841 0.000000
						}
					}
				}
				JOINT HairG
				{
					OFFSET -8.087700 17.612701 -11.592200
					CHANNELS 3 Xrotation Yrotation Zrotation
					JOINT HairG1
					{
						OFFSET -0.293600 -6.081398 -0.910100
						CHANNELS 3 Xrotation Yrotation Zrotation
						End Site
						{
							OFFSET 0.000000 6.156120 0.000000
						}
					}
				}
			}
		}
	}
	JOINT Pouch
	{
		OFFSET 0.000000 4.394501 10.847300
		CHANNELS 3 Xrotation Yrotation Zrotation
		End Site
		{
			OFFSET 0.000000 21.880577 0.000000
		}
	}
	JOINT Bag
	{
		OFFSET -13.229000 4.813004 -0.593300
		CHANNELS 3 Xrotation Yrotation Zrotation
		End Site
		{
			OFFSET 0.000000 21.880577 0.000000
		}
	}
	JOINT OccupyGuyFacialAnim_Joint
	{
		OFFSET 1.000000 -70.206398 -1.655000
		CHANNELS 3 Xrotation Yrotation Zrotation
		End Site
		{
			OFFSET 0.000000 21.880577 0.000000
		}
	}
}
MOTION
Frames: 4
Frame Time: 0.016667
0.039677 35.135109 1.064481 0.290782 0.673343 0.772037 0.000000 0.000000 -0.000000 -5.976603 1.543336 13.672406 108.351088 18.095277 1.897414 23.823131 -0.112361 -12.803095 -0.000001 -0.000001 0.000001 -0.000000 -0.000000 0.000001 -4.247053 -4.838298 -13.362714 108.715561 -5.387815 -0.737338 14.705175 0.492342 8.276710 -0.000002 -0.000000 0.000000 -0.000000 0.000000 -0.000000 1.234796 0.309185 -0.014029 0.110009 0.122969 -0.090715 0.108809 0.114775 -0.092286 -0.391164 0.001169 0.119094 -1.124861 0.498129 0.197439 0.000000 0.000000 0.000000 0.000000 0.000000 0.000000 0.000000 0.000000 0.000000 0.000000 0.000000 -0.000000 -0.000000 0.000000 0.000000 0.000000 0.000000 -0.000000 -0.000000 0.000000 0.000000 0.000000 0.000000 0.000000 0.000000 0.000000 0.000000 0.606873 -3.284650 -22.051937 11.464584 -16.354599 -52.988526 -0.000003 -20.361386 0.000008 -6.670431 11.936417 -5.315180 -8.139800 -14.751889 10.508546 11.522781 33.951392 -1.839706 -0.000001 -0.000000 -0.000001 -0.453777 -5.320372 -4.184399 0.332717 1.947930 -19.383546 0.000001 0.000000 -0.000000 -0.401514 -0.921338 -7.463554 1.036269 3.328479 -34.578003 0.000001 0.000001 -0.000001 -0.149529 2.814357 -20.128129 0.105526 1.108097 -10.879702 -0.000003 0.000001 -0.000003 -7.736880 8.986374 -14.639667 0.589050 2.562161 -25.891236 0.000001 -0.000002 0.000003 0.000001 0.000001 -0.000001 -0.115223 9.903018 22.054923 7.750432 7.038409 56.271961 -0.000008 19.886639 0.000035 -2.747035 -6.054066 1.890067 -17.666028 6.240258 -1.517371 -4.146436 -35.461400 -9.882247 -0.000001 0.000001 0.000001 13.894430 5.077773 9.899992 0.129267 -1.090751 13.516401 -0.000003 0.000002 0.000001 -0.138701 -1.041600 7.048788 0.785993 -2.591013 33.745376 0.000000 0.000001 -0.000002 0.562755 -5.309927 11.245065 0.533997 -2.167227 27.680986 -0.000000 0.000000 -0.000002 -12.301533 -16.678057 11.029500 0.315741 -1.687209 21.197750 -0.000001 0.000002 0.000001 0.000001 -0.000003 0.000000 -0.000000 0.000000 -0.000000 -0.000000 0.000000 -0.000000 -0.000000 0.000000 0.000000 -0.000000 0.000000 0.000000 -0.000000 0.000000 -0.000000 -0.000000 0.000000 -0.000000 -0.000000 0.000000 0.000000 -0.000000 0.000000 0.000000 -0.000000 0.000000 -0.000000 -0.000000 0.000000 -0.000000 0.000000 0.000000 -0.000000 0.000000 0.000000 -0.000000 0.000000 0.000000 -0.000000 
0.034412 35.135872 1.056745 0.298437 0.592961 0.664764 -0.000000 -0.000000 0.000000 -5.952106 1.501916 13.806435 108.396796 18.020467 1.793366 23.806090 -0.098184 -12.822106 -0.000001 -0.000002 0.000000 -0.000001 0.000000 -0.000000 -4.306085 -4.853115 -13.230056 108.720813 -5.523872 -0.819699 14.730838 0.567837 8.247669 0.000001 -0.000001 0.000002 -0.000000 -0.000000 -0.000000 1.200840 0.326977 -0.006512 0.052092 0.122970 -0.079783 0.095956 0.114775 -0.080994 -0.228473 -0.005408 0.129676 0.329910 0.494719 0.033181 -0.000000 0.000000 0.000000 -0.000000 0.000000 0.000000 -0.000000 0.000000 0.000000 -0.000000 0.000000 -0.000000 -0.000000 0.000000 -0.000000 -0.000000 0.000000 -0.000000 -0.000000 0.000000 -0.000000 -0.000000 0.000000 0.000000 -0.000000 0.000000 0.000000 0.608520 -3.276007 -22.034008 11.676378 -16.033982 -52.975418 -0.000006 -20.991236 -0.000003 -6.051229 11.322434 -4.940429 -8.139793 -14.751890 10.508553 11.522785 33.951381 -1.839725 -0.000001 -0.000000 -0.000000 -0.453768 -5.320375 -4.184398 0.332713 1.947929 -19.383537 0.000003 0.000001 0.000000 -0.401515 -0.921338 -7.463577 1.036279 3.328482 -34.578021 0.000001 0.000001 0.000001 -0.149526 2.814354 -20.128161 0.105523 1.108094 -10.879726 -0.000003 0.000000 -0.000002 -7.736879 8.986372 -14.639670 0.589056 2.562164 -25.891212 0.000001 -0.000000 -0.000001 -0.000000 -0.000002 0.000002 -0.112319 9.880030 22.058280 7.556013 7.063307 56.310631 -0.000009 19.520831 -0.000007 -3.871946 -5.621828 1.949130 -17.631775 6.226405 -1.472151 -4.122554 -35.426477 -9.858953 -0.000000 -0.000001 0.000000 13.897260 5.063018 9.896213 0.129272 -1.090748 13.516393 -0.000003 0.000004 0.000001 -0.138558 -1.041057 7.042440 0.785990 -2.591018 33.745379 -0.000002 0.000000 0.000001 0.562414 -5.309467 11.238694 0.534010 -2.167233 27.680967 0.000001 -0.000000 -0.000002 -12.305476 -16.660370 11.028093 0.315738 -1.687208 21.197726 -0.000001 0.000001 -0.000005 0.000002 -0.000002 -0.000000 0.000000 0.000000 -0.000000 0.000000 0.000000 0.000000 0.000000 0.000000 -0.000000 0.000000 0.000000 -0.000000 0.000000 0.000000 -0.000000 0.000000 0.000000 0.000000 0.000000 0.000000 -0.000000 0.000000 0.000000 -0.000000 0.000000 0.000000 -0.000000 0.000000 0.000000 0.000000 -0.000000 -0.000000 0.000000 -0.000000 -0.000000 0.000000 -0.000000 -0.000000 0.000000 
0.029179 35.136566 1.050293 0.304433 0.513969 0.557531 0.000000 0.000000 0.000000 -5.926238 1.471326 13.940696 108.437524 17.929064 1.700176 23.788208 -0.064959 -12.848622 -0.000002 -0.000002 0.000004 -0.000000 0.000000 -0.000000 -4.359763 -4.867980 -13.096804 108.722849 -5.663610 -0.901107 14.756475 0.647791 8.219103 -0.000000 0.000002 -0.000000 0.000000 0.000000 0.000000 1.163634 0.342435 0.001389 -0.003815 0.122969 -0.069357 0.082491 0.114775 -0.070304 -0.071076 -0.012586 0.139878 1.744315 0.480031 -0.128429 -0.000000 -0.000000 0.000000 -0.000000 -0.000000 0.000000 -0.000000 -0.000000 0.000000 -0.000000 -0.000000 0.000000 -0.000000 0.000000 0.000000 -0.000000 -0.000000 0.000000 -0.000000 0.000000 0.000000 -0.000000 -0.000000 0.000000 -0.000000 -0.000000 0.000000 0.612547 -3.237233 -22.011258 11.987008 -15.467824 -52.997586 0.000008 -21.987783 0.000012 -5.382036 10.694935 -4.502711 -8.139798 -14.751889 10.508555 11.522776 33.951375 -1.839732 -0.000003 -0.000000 -0.000001 -0.453765 -5.320374 -4.184394 0.332710 1.947931 -19.383548 0.000001 0.000001 -0.000002 -0.401515 -0.921339 -7.463582 1.036279 3.328480 -34.578010 -0.000000 0.000000 -0.000001 -0.149521 2.814351 -20.128173 0.105523 1.108097 -10.879692 0.000001 0.000000 -0.000002 -7.736881 8.986372 -14.639657 0.589048 2.562163 -25.891219 0.000001 -0.000001 0.000003 0.000000 0.000001 0.000001 -0.109608 9.836587 22.070942 7.347450 6.953230 56.327894 -0.000003 19.192797 0.000010 -5.078329 -5.110200 2.168243 -17.553627 6.187641 -1.350074 -4.048861 -35.369373 -9.802760 -0.000001 -0.000001 0.000003 13.900049 5.031322 9.920343 0.129426 -1.091420 13.524790 -0.000000 0.000001 -0.000001 -0.138977 -1.042691 7.061628 0.786363 -2.591583 33.753743 0.000001 -0.000001 -0.000003 0.563435 -5.310864 11.257964 0.534317 -2.167825 27.689322 0.000001 0.000000 -0.000003 -12.306922 -16.625901 11.059009 0.316056 -1.688017 21.208385 0.000000 0.000000 -0.000001 0.000004 0.000003 -0.000001 -0.000000 0.000000 0.000000 -0.000000 0.000000 0.000000 -0.000000 0.000000 0.000000 -0.000000 0.000000 0.000000 -0.000000 0.000000 0.000000 -0.000000 0.000000 -0.000000 -0.000000 0.000000 0.000000 -0.000000 0.000000 0.000000 -0.000000 0.000000 0.000000 -0.000000 0.000000 -0.000000 0.000000 0.000000 0.000000 0.000000 0.000000 0.000000 0.000000 0.000000 0.000000 
0.023961 35.137215 1.044646 0.309339 0.435835 0.450332 0.000000 -0.000000 -0.000000 -5.900536 1.451726 14.076898 108.474162 17.821775 1.616870 23.768216 -0.016463 -12.878029 0.000001 -0.000000 0.000003 -0.000000 0.000000 -0.000000 -4.410008 -4.882623 -12.963568 108.723375 -5.788050 -0.981067 14.782198 0.712890 8.195440 0.000001 -0.000002 0.000002 -0.000000 0.000000 -0.000000 1.124398 0.356442 0.009521 -0.058467 0.122970 -0.059246 0.068642 0.114775 -0.059990 0.083013 -0.020141 0.149842 3.133420 0.460802 -0.287752 -0.000000 0.000000 0.000000 -0.000000 0.000000 0.000000 -0.000000 0.000000 0.000000 -0.000000 0.000000 -0.000000 -0.000000 0.000000 -0.000000 -0.000000 0.000000 -0.000000 -0.000000 0.000000 -0.000000 -0.000000 0.000000 0.000000 -0.000000 0.000000 0.000000 0.620312 -3.169125 -21.988826 12.328129 -14.761507 -53.058928 -0.000005 -23.142211 0.000002 -4.776232 10.167325 -4.082462 -8.139799 -14.751892 10.508538 11.522791 33.951381 -1.839754 0.000002 0.000001 0.000001 -0.453767 -5.320381 -4.184404 0.332709 1.947934 -19.383537 0.000002 0.000000 -0.000000 -0.401510 -0.921344 -7.463596 1.036271 3.328479 -34.578024 -0.000000 -0.000000 -0.000001 -0.149519 2.814350 -20.128161 0.105519 1.108096 -10.879714 0.000001 -0.000000 -0.000002 -7.736875 8.986371 -14.639677 0.589047 2.562161 -25.891208 0.000000 -0.000001 -0.000004 0.000000 -0.000001 0.000000 -0.108020 9.779241 22.093357 7.155703 6.738902 56.317126 -0.000010 18.933008 0.000009 -6.140815 -4.611272 2.521074 -17.448340 6.132598 -1.164793 -3.936269 -35.319274 -9.728657 -0.000000 -0.000003 0.000003 13.899340 4.991644 9.992885 0.130036 -1.093982 13.556991 -0.000001 -0.000001 0.000002 -0.140425 -1.048373 7.128608 0.787810 -2.593744 33.785753 0.000003 0.000000 0.000003 0.566994 -5.315723 11.325266 0.535534 -2.170134 27.721347 0.000001 0.000002 0.000003 -12.302561 -16.587953 11.141770 0.317153 -1.690855 21.245751 -0.000001 0.000000 0.000001 0.000000 -0.000001 0.000001 -0.000000 0.000000 -0.000000 -0.000000 0.000000 0.000000 -0.000000 0.000000 -0.000000 -0.000000 0.000000 -0.000000 -0.000000 0.000000 -0.000000 -0.000000 0.000000 0.000000 -0.000000 0.000000 -0.000000 -0.000000 0.000000 -0.000000 -0.000000 0.000000 -0.000000 -0.000000 0.000000 0.000000 0.000000 -0.000000 -0.000000 0.000000 -0.000000 -0.000000 0.000000 -0.000000 -0.000000 
